<svg xmlns="http://www.w3.org/2000/svg" xmlns:xlink="http://www.w3.org/1999/xlink" id="Layer_1" width="100%" x="0" y="0" enable-background="new 0 0 512 512" version="1.1" viewBox="0 0 512 512" xml:space="preserve"><path fill="#FFF" stroke="none" d="M264.000000,0.999999 C346.948944,1.000000 429.897858,1.000000 513.000000,1.000000 C513.000000,153.021973 513.000000,305.044006 512.667114,457.417542 C509.890594,454.110840 506.393951,452.294739 502.045837,451.517944 C499.729126,441.557251 495.081787,433.427826 488.056122,426.432922 C480.744385,419.153137 471.840302,415.350555 462.245422,412.606842 C469.905823,410.040771 473.329956,404.841827 473.005005,396.150299 C472.746643,389.239807 468.685699,384.322693 461.863525,382.614136 C458.427246,382.232971 455.238251,382.197052 451.823761,382.090607 C451.598297,382.020081 451.128967,381.965546 450.938995,381.602112 C450.499573,380.157135 450.198212,379.084595 450.009369,377.992584 C449.027283,372.313446 448.073822,366.629364 447.067047,360.509094 C446.803253,357.949585 446.659180,355.816742 446.349792,353.708191 C444.591278,341.724335 442.860809,329.735718 440.978821,317.770996 C440.095276,312.153900 438.893860,306.586731 437.903015,300.569031 C437.355103,294.441589 436.740631,288.742004 436.523315,283.028290 C438.008850,282.695190 439.080322,282.291504 440.188232,282.070648 C449.296143,280.254944 453.935944,273.808136 453.002777,264.212006 C452.356140,257.561707 445.774323,252.153290 437.819275,251.596069 C426.182800,251.246780 414.801849,251.246780 403.000275,251.246780 C403.000275,246.855896 403.252167,243.220337 402.930542,239.636215 C402.598907,235.940506 403.939514,233.947784 407.097870,231.838852 C418.007385,224.554123 425.730743,214.601151 429.916748,201.624405 C434.141327,190.940887 434.008179,180.282776 431.984283,169.682846 C427.725555,147.378342 414.349457,132.835281 393.345825,124.578964 C382.491272,120.312141 371.287231,121.434135 360.489563,122.431786 C351.083069,123.300903 342.066406,127.824448 334.652161,135.021790 C332.697357,136.475128 330.749298,137.533966 329.470062,139.129150 C325.861938,143.628494 322.528473,148.348083 319.054810,152.553345 C320.489532,142.139404 321.871002,132.139435 323.452637,122.171242 C324.518829,115.451637 325.867554,108.776848 327.546936,102.050323 C331.000244,102.011986 334.167511,102.622749 336.951843,101.851364 C340.946686,100.744614 345.605347,99.537186 348.290314,96.746498 C353.089844,91.758026 353.371613,85.152077 350.306671,78.824760 C347.454376,72.936386 342.290497,70.971405 336.035309,70.982491 C318.058319,71.014366 300.081146,70.964821 282.064423,70.484100 C282.016510,54.700630 282.016052,39.380318 281.997101,24.060036 C281.985565,14.752872 275.893921,6.154839 266.865417,2.644156 C265.788544,1.917897 264.894287,1.458948 264.000000,0.999999 z" opacity="1"/><path fill="#FFF" stroke="none" d="M1.000000,458.000000 C1.000000,305.760406 1.000000,153.520798 1.000000,1.000000 C83.688469,1.000000 166.377258,1.000000 249.375397,1.322730 C238.467163,4.701702 231.514465,15.120573 231.610748,25.183975 C231.151764,40.632996 231.014603,55.797951 230.416779,70.981262 C211.988220,70.999733 194.020294,70.980469 176.052429,71.010773 C169.996933,71.020988 164.295059,75.352898 162.313904,81.298889 C160.284637,87.389259 162.774765,95.223740 167.479263,98.830215 C172.405991,102.607040 178.021774,102.122818 183.593491,101.956696 C186.750244,101.862564 187.883820,102.953918 188.132675,106.223824 C188.555161,111.775406 189.650864,117.276054 190.470993,122.797012 C191.964890,132.853683 193.464203,142.909561 194.646515,152.833221 C186.220261,138.208054 174.550537,127.553421 158.270752,123.991325 C148.468521,121.846535 137.856155,121.269707 127.919174,122.500969 C118.748169,123.637306 109.862495,127.872681 102.656670,135.020599 C99.018021,138.525055 95.215508,141.527206 92.435448,145.285629 C73.822212,170.449371 77.042557,206.718170 101.197929,227.017609 C108.991287,233.566925 112.348152,239.604431 111.067764,249.423569 C109.341957,250.237045 107.725769,250.909378 106.086151,250.972443 C95.333427,251.386032 84.573357,251.607849 73.820328,252.014893 C67.096497,252.269424 63.196224,256.806549 61.455696,262.398529 C59.826424,267.633118 60.204002,273.632355 65.112267,277.395813 C68.833397,280.248993 73.378593,282.027435 77.940689,284.491333 C77.940689,285.131836 78.123375,286.485779 77.911583,287.774933 C76.323158,297.443390 74.504684,307.076202 73.047569,316.763641 C70.249458,335.366455 67.709084,354.007996 64.928261,372.613495 C63.523937,382.009308 63.391994,381.989624 57.456966,381.999939 C48.672760,382.015259 42.794960,386.283936 41.112946,393.869659 C39.319672,401.957092 43.343472,409.196930 51.151676,412.461670 C46.046967,414.627289 40.366779,416.370728 35.374569,419.290466 C24.187826,425.833191 16.509501,435.390045 12.863666,448.027740 C12.436780,449.507446 11.292212,451.032227 10.053329,451.974884 C7.174248,454.165558 4.034255,456.013275 1.000000,458.000000 z" opacity="1"/><path fill="#F1BA55" stroke="none" d="M231.932556,24.899910 C231.514465,15.120573 238.467163,4.701702 249.842377,1.322730 C254.356903,1.000000 258.713806,1.000000 263.535339,0.999999 C264.894287,1.458948 265.788544,1.917897 266.714294,2.955601 C259.094147,8.603845 253.280090,15.063409 253.077515,24.720377 C252.784180,38.703274 253.115311,52.698437 252.924118,66.684875 C252.873627,70.378197 254.332870,71.145912 257.625671,71.067642 C265.781494,70.873787 273.944153,70.968498 282.104065,70.947281 C300.081146,70.964821 318.058319,71.014366 336.035309,70.982491 C342.290497,70.971405 347.454376,72.936386 350.306671,78.824760 C353.371613,85.152077 353.089844,91.758026 348.290314,96.746498 C345.605347,99.537186 340.946686,100.744614 336.951843,101.851364 C334.167511,102.622749 331.000244,102.011986 327.158783,101.873558 C324.690125,101.491631 323.066925,101.049812 321.443268,101.048042 C285.293182,101.008751 249.143082,101.014557 212.992981,101.030434 C211.536560,101.031075 210.080200,101.213898 207.856583,101.363434 C208.607666,106.876854 208.900681,112.133324 210.106323,117.171379 C212.054489,125.312248 213.219345,134.080933 217.190964,141.203949 C225.040314,155.281601 238.566620,160.896408 254.389694,160.959167 C275.212952,161.041779 296.036835,160.954453 316.909607,161.366547 C316.007202,168.499588 315.055664,175.206268 313.627014,181.938385 C281.712067,181.972488 250.271332,182.214996 218.838501,181.823990 C211.064240,181.727280 203.007889,187.577896 202.983673,196.703705 C202.962677,204.613602 209.932648,211.976654 218.322922,211.931030 C253.209686,211.741394 288.095245,211.328049 323.368073,211.159119 C327.703156,211.547684 331.649078,211.903656 335.600098,211.974625 C345.440033,212.151398 351.944702,218.343811 351.900757,228.125412 C351.865051,236.075226 351.354340,244.022888 350.902832,252.280304 C347.216064,259.142303 341.835510,262.366516 334.285645,262.035583 C329.852356,261.841278 325.403503,262.001617 320.496918,262.010559 C286.262878,262.012604 252.493607,262.006012 218.724319,262.001007 C213.427612,262.000214 208.937546,263.832520 205.918289,268.286133 C202.504822,273.321167 201.719940,278.727600 204.838898,284.234467 C208.006729,289.827667 212.945816,292.053467 219.319687,292.042725 C249.926819,291.991180 280.534210,292.081451 311.112549,292.526276 C311.982513,298.983398 312.881439,305.035614 313.333862,311.062286 C292.448425,311.348022 271.979004,311.076965 251.579819,312.145844 C233.690445,313.083191 219.444046,328.289032 216.943863,346.546692 C214.636398,363.396881 211.760010,380.168762 209.190125,396.983704 C208.406281,402.112335 207.807724,407.269287 207.046783,412.996765 C248.189941,412.996765 288.614349,412.996765 329.494934,412.988647 C333.309784,412.973389 336.668457,412.966278 340.317383,413.094055 C341.410004,413.472321 342.212372,413.715698 343.319611,414.112610 C350.656921,417.735931 351.573456,423.988281 350.997406,430.801666 C350.419342,437.639130 345.360291,440.547760 340.362030,442.455475 C346.872314,445.496429 353.549042,448.629761 360.242157,451.727661 C361.417969,452.271851 362.662415,452.667664 363.936035,453.469055 C365.492432,455.529175 367.009644,457.233948 368.479736,458.978424 C374.352814,465.947876 379.452148,473.301636 379.685425,482.866882 C297.119385,482.928955 215.027786,482.929443 133.004608,482.564636 C134.763611,477.903198 135.829208,473.201904 138.290466,469.405396 C142.036743,463.626709 146.749878,458.474762 151.366486,452.916077 C158.849075,449.319092 166.017624,445.862671 172.823105,442.581329 C159.045532,434.287476 157.939178,421.441620 171.301163,413.939575 C172.402191,413.603699 173.183121,413.275940 174.420044,412.964264 C177.037354,412.976990 179.296051,413.355469 181.326111,412.837646 C182.706161,412.485657 184.618942,411.027069 184.832443,409.807556 C186.394409,400.885986 187.586792,391.899689 188.935852,382.522278 C189.959091,375.086334 190.942276,368.061981 192.103088,360.669189 C193.379974,353.467163 194.559875,346.645355 195.561127,339.797424 C197.448090,326.891754 199.232132,313.971039 201.329590,300.773621 C201.996643,297.919952 202.393082,295.349182 202.921234,291.924408 C193.913132,293.051178 186.479446,291.113922 182.916412,281.635193 C180.017227,272.096527 185.531189,266.906616 192.848175,262.000000 C187.767776,262.000000 183.626923,261.770294 179.520538,262.048859 C171.522583,262.591492 166.425278,258.655792 162.814178,251.661438 C162.446320,250.575912 162.183212,249.787949 161.958496,248.532516 C162.004517,241.591324 161.979919,235.117401 162.027023,228.643967 C162.105164,217.901703 168.007172,212.013351 178.650589,212.000717 C182.330399,211.996338 186.010193,212.000015 189.690002,212.000015 C189.831146,211.447235 189.972275,210.894455 190.113419,210.341690 C188.434433,209.201523 186.755447,208.061356 185.016022,206.554108 C184.557144,205.278534 184.150833,204.373413 183.761444,203.461090 C178.998688,192.302277 185.137802,182.561249 197.289062,181.955688 C198.048004,181.917862 198.793854,181.617340 199.910522,181.352570 C198.231720,171.723709 196.596481,162.344742 194.961243,152.965775 C193.464203,142.909561 191.964890,132.853683 190.470993,122.797012 C189.650864,117.276054 188.555161,111.775406 188.132675,106.223824 C187.883820,102.953918 186.750244,101.862564 183.593491,101.956696 C178.021774,102.122818 172.405991,102.607040 167.479263,98.830215 C162.774765,95.223740 160.284637,87.389259 162.313904,81.298889 C164.295059,75.352898 169.996933,71.020988 176.052429,71.010773 C194.020294,70.980469 211.988220,70.999733 230.750259,70.723083 C231.673782,55.264332 231.803162,40.082119 231.932556,24.899910 z" opacity="1"/><path fill="#B17F4D" stroke="none" d="M182.946045,282.035126 C186.479446,291.113922 193.913132,293.051178 202.921234,291.924408 C202.393082,295.349182 201.996643,297.919952 200.854950,300.753967 C179.318924,301.012390 158.528046,301.038757 137.737320,300.993591 C118.464165,300.951721 105.448914,315.655487 105.690331,331.652832 C105.926300,347.288849 119.360764,361.526276 135.543655,361.122681 C154.326614,360.654266 173.130585,361.028931 191.925446,361.037659 C190.942276,368.061981 189.959091,375.086334 188.524384,382.529480 C186.118637,382.638062 184.162308,382.044800 182.210571,382.059601 C146.976547,382.326202 111.742477,382.613800 76.509949,383.027710 C67.815033,383.129852 61.094879,392.767609 63.577515,401.121704 C65.852043,408.775513 72.140831,412.965057 81.654610,412.974823 C111.437813,413.005371 141.221069,412.984894 171.000031,413.225098 C170.995728,413.466003 170.981064,413.947662 170.981064,413.947662 C157.939178,421.441620 159.045532,434.287476 172.823105,442.581329 C166.017624,445.862671 158.849075,449.319092 150.892853,452.892578 C111.321022,453.004944 72.536606,452.939789 33.753391,453.126007 C31.052864,453.138947 27.637321,454.301483 25.797514,456.160095 C19.585241,462.435669 23.003042,478.910797 30.484161,482.898010 C24.425804,482.974823 18.798901,482.633148 13.239855,483.099823 C7.691884,483.565552 3.899292,481.401184 1.000000,477.000000 C1.000000,470.978851 1.000000,464.957703 1.000000,458.468262 C4.034255,456.013275 7.174248,454.165558 10.053329,451.974884 C11.292212,451.032227 12.436780,449.507446 12.863666,448.027740 C16.509501,435.390045 24.187826,425.833191 35.374569,419.290466 C40.366779,416.370728 46.046967,414.627289 51.151676,412.461670 C43.343472,409.196930 39.319672,401.957092 41.112946,393.869659 C42.794960,386.283936 48.672760,382.015259 57.456966,381.999939 C63.391994,381.989624 63.523937,382.009308 64.928261,372.613495 C67.709084,354.007996 70.249458,335.366455 73.047569,316.763641 C74.504684,307.076202 76.323158,297.443390 77.911583,287.774933 C78.123375,286.485779 77.940689,285.131836 77.940689,284.491333 C73.378593,282.027435 68.833397,280.248993 65.112267,277.395813 C60.204002,273.632355 59.826424,267.633118 61.455696,262.398529 C63.196224,256.806549 67.096497,252.269424 73.820328,252.014893 C84.573357,251.607849 95.333427,251.386032 106.086151,250.972443 C107.725769,250.909378 109.341957,250.237045 111.525009,249.423309 C128.694061,249.000076 145.307098,249.000046 161.920120,249.000000 C162.183212,249.787949 162.446320,250.575912 162.354309,251.675446 C141.207336,251.986053 120.405853,252.347382 99.628677,251.794556 C91.991776,251.591370 83.045494,258.720428 83.039551,266.995789 C83.033531,275.384796 92.187195,282.335144 99.616081,282.202911 C127.384933,281.708679 155.168182,282.023651 182.946045,282.035126 z" opacity="1"/><path fill="#FFDF64" stroke="none" d="M132.936188,482.929962 C215.027786,482.929443 297.119385,482.928955 380.108398,482.924316 C383.032257,482.984436 385.058716,483.048676 387.212097,483.430969 C388.869537,485.570770 391.756500,487.437286 391.698090,489.206635 C391.429993,497.328308 395.049652,506.399323 387.000000,513.000000 C300.645233,513.000000 214.290482,513.000000 127.340286,512.673767 C118.583298,505.638458 118.673370,491.316162 127.356949,483.078674 C129.502197,483.002228 131.219193,482.966095 132.936188,482.929962 z" opacity="1"/><path fill="#D19149" stroke="none" d="M387.085144,483.112915 C385.058716,483.048676 383.032257,482.984436 380.582825,482.862732 C379.452148,473.301636 374.352814,465.947876 368.479736,458.978424 C367.009644,457.233948 365.492432,455.529175 364.416138,453.418457 C408.540161,453.018097 452.245056,453.019958 495.949768,452.946655 C497.993927,452.943237 500.036957,452.269135 502.080505,451.907410 C506.393951,452.294739 509.890594,454.110840 512.667114,457.884521 C513.000000,464.021149 513.000000,470.042297 512.678284,476.666260 C510.327148,481.422760 507.072693,483.069031 502.395905,483.060730 C463.959137,482.992493 425.522095,483.075684 387.085144,483.112915 z" opacity="1"/><path fill="#FFF" stroke="none" d="M387.212097,483.430969 C425.522095,483.075684 463.959137,482.992493 502.395905,483.060730 C507.072693,483.069031 510.327148,481.422760 512.678284,477.134552 C513.000000,488.967499 513.000000,500.935028 513.000000,513.000000 C471.312500,513.000000 429.624908,513.000000 387.468658,513.000000 C395.049652,506.399323 391.429993,497.328308 391.698090,489.206635 C391.756500,487.437286 388.869537,485.570770 387.212097,483.430969 z" opacity="1"/><path fill="#FFF" stroke="none" d="M126.928680,483.118988 C118.673370,491.316162 118.583298,505.638458 126.872437,512.673767 C85.113724,513.000000 43.227455,513.000000 1.000000,513.000000 C1.000000,501.314667 1.000000,489.625977 1.000000,477.468658 C3.899292,481.401184 7.691884,483.565552 13.239855,483.099823 C18.798901,482.633148 24.425804,482.974823 30.952492,482.967194 C63.564240,483.021088 95.246460,483.070038 126.928680,483.118988 z" opacity="1"/><path fill="#B17F4D" stroke="none" d="M313.780365,311.087830 C312.881439,305.035614 311.982513,298.983398 311.552002,292.503052 C320.453644,292.662415 327.620209,290.838379 331.584991,282.028687 C364.807770,282.011230 397.569855,281.988617 430.331787,282.045807 C432.263824,282.049164 434.194763,282.695374 436.126160,283.042450 C436.740631,288.742004 437.355103,294.441589 437.445557,300.570953 C414.767731,301.001343 392.613342,300.922974 370.460571,301.076202 C366.534943,301.103333 362.547119,301.799835 358.706940,302.696503 C347.235992,305.374939 336.091614,318.998474 337.800720,334.304291 C339.376678,348.417419 351.145874,360.912933 365.159180,360.967407 C392.475830,361.073547 419.793274,360.966034 447.110413,360.947021 C448.073822,366.629364 449.027283,372.313446 450.009369,377.992584 C450.198212,379.084595 450.499573,380.157135 450.461304,381.617981 C429.856079,382.003876 409.537445,381.879425 389.221405,382.052979 C367.778961,382.236115 346.338989,382.703461 324.617310,382.769592 C322.791260,371.890747 321.264221,361.286224 319.695679,350.687775 C317.741760,337.485138 315.753693,324.287598 313.780365,311.087830 z" opacity="1"/><path fill="#FFDF64" stroke="none" d="M316.860474,160.940186 C296.036835,160.954453 275.212952,161.041779 254.389694,160.959167 C238.566620,160.896408 225.040314,155.281601 217.190964,141.203949 C213.219345,134.080933 212.054489,125.312248 210.106323,117.171379 C208.900681,112.133324 208.607666,106.876854 207.856583,101.363434 C210.080200,101.213898 211.536560,101.031075 212.992981,101.030434 C249.143082,101.014557 285.293182,101.008751 321.443268,101.048042 C323.066925,101.049812 324.690125,101.491631 326.701721,101.905258 C325.867554,108.776848 324.518829,115.451637 323.452637,122.171242 C321.871002,132.139435 320.489532,142.139404 318.995911,152.926697 C318.266113,156.131760 317.563293,158.535980 316.860474,160.940186 z" opacity="1"/><path fill="#D19149" stroke="none" d="M447.067047,360.509094 C419.793274,360.966034 392.475830,361.073547 365.159180,360.967407 C351.145874,360.912933 339.376678,348.417419 337.800720,334.304291 C336.091614,318.998474 347.235992,305.374939 358.706940,302.696503 C362.547119,301.799835 366.534943,301.103333 370.460571,301.076202 C392.613342,300.922974 414.767731,301.001343 437.379028,300.998840 C438.893860,306.586731 440.095276,312.153900 440.978821,317.770996 C442.860809,329.735718 444.591278,341.724335 446.349792,353.708191 C446.659180,355.816742 446.803253,357.949585 447.067047,360.509094 z" opacity="1"/><path fill="#D19149" stroke="none" d="M334.964294,134.872131 C342.066406,127.824448 351.083069,123.300903 360.489563,122.431786 C371.287231,121.434135 382.491272,120.312141 393.345825,124.578964 C414.349457,132.835281 427.725555,147.378342 431.984283,169.682846 C434.008179,180.282776 434.141327,190.940887 429.555847,201.667999 C427.859344,202.520386 426.576996,202.876602 425.353241,203.376312 C393.309082,216.461166 356.828308,202.374344 341.406769,170.672623 C335.936401,159.427353 334.349030,147.303787 334.964294,134.872131 M383.898529,141.000244 C375.852509,142.547226 371.911743,147.778214 373.064758,155.381058 C374.612823,165.589081 384.283722,174.816803 394.610474,175.939499 C401.560791,176.695145 407.769775,171.368744 408.004913,164.449066 C408.459015,151.085800 398.471283,141.005539 383.898529,141.000244 z" opacity="1"/><path fill="#B17F4D" stroke="none" d="M502.045837,451.517944 C500.036957,452.269135 497.993927,452.943237 495.949768,452.946655 C452.245056,453.019958 408.540161,453.018097 364.355225,453.081421 C362.662415,452.667664 361.417969,452.271851 360.242157,451.727661 C353.549042,448.629761 346.872314,445.496429 340.362030,442.455475 C345.360291,440.547760 350.419342,437.639130 350.997406,430.801666 C351.573456,423.988281 350.656921,417.735931 343.313538,413.868500 C343.002594,413.470856 342.994904,412.981781 343.463867,412.982361 C383.325623,412.965607 422.718384,412.948273 462.111145,412.930939 C471.840302,415.350555 480.744385,419.153137 488.056122,426.432922 C495.081787,433.427826 499.729126,441.557251 502.045837,451.517944 z" opacity="1"/><path fill="#B17F4D" stroke="none" d="M334.652161,135.021790 C334.349030,147.303787 335.936401,159.427353 341.406769,170.672623 C356.828308,202.374344 393.309082,216.461166 425.353241,203.376312 C426.576996,202.876602 427.859344,202.520386 429.475250,202.053711 C425.730743,214.601151 418.007385,224.554123 407.097870,231.838852 C403.939514,233.947784 402.598907,235.940506 402.930542,239.636215 C403.252167,243.220337 403.000275,246.855896 403.000275,251.246780 C414.801849,251.246780 426.182800,251.246780 437.346466,251.608429 C408.437561,251.970535 379.745941,251.971024 351.054291,251.971512 C351.354340,244.022888 351.865051,236.075226 351.900757,228.125412 C351.944702,218.343811 345.440033,212.151398 335.600098,211.974625 C331.649078,211.903656 327.703156,211.547684 323.527954,210.862503 C332.370819,204.487045 334.357513,193.652084 327.778351,186.347336 C324.044495,182.201675 319.214203,181.685898 314.104156,181.912933 C315.055664,175.206268 316.007202,168.499588 316.909607,161.366562 C317.563293,158.535980 318.266113,156.131760 319.027832,153.354202 C322.528473,148.348083 325.861938,143.628494 329.470062,139.129150 C330.749298,137.533966 332.697357,136.475128 334.652161,135.021790 z" opacity="1"/><path fill="#D19149" stroke="none" d="M462.245422,412.606842 C422.718384,412.948273 383.325623,412.965607 343.282715,412.736328 C341.764069,412.646179 340.895599,412.802673 340.027130,412.959167 C336.668457,412.966278 333.309784,412.973389 329.476227,412.573608 C327.633545,402.459991 326.265717,392.753326 324.897919,383.046631 C346.338989,382.703461 367.778961,382.236115 389.221405,382.052979 C409.537445,381.879425 429.856079,382.003876 450.651245,381.981384 C451.128967,381.965546 451.598297,382.020081 452.129242,382.350372 C455.810364,382.773560 458.960571,382.866455 462.110748,382.959351 C468.685699,384.322693 472.746643,389.239807 473.005005,396.150299 C473.329956,404.841827 469.905823,410.040771 462.245422,412.606842 z" opacity="1"/><path fill="#D19149" stroke="none" d="M350.902832,252.280304 C379.745941,251.971024 408.437561,251.970535 437.602020,251.957703 C445.774323,252.153290 452.356140,257.561707 453.002777,264.212006 C453.935944,273.808136 449.296143,280.254944 440.188232,282.070648 C439.080322,282.291504 438.008850,282.695190 436.523346,283.028290 C434.194763,282.695374 432.263824,282.049164 430.331787,282.045807 C397.569855,281.988617 364.807770,282.011230 331.546570,281.569458 C332.342377,272.292786 329.269592,265.766876 320.961670,262.002441 C325.403503,262.001617 329.852356,261.841278 334.285645,262.035583 C341.835510,262.366516 347.216064,259.142303 350.902832,252.280304 z" opacity="1"/><path fill="#FFDF64" stroke="none" d="M282.064423,70.484100 C273.944153,70.968498 265.781494,70.873787 257.625671,71.067642 C254.332870,71.145912 252.873627,70.378197 252.924118,66.684875 C253.115311,52.698437 252.784180,38.703274 253.077515,24.720377 C253.280090,15.063409 259.094147,8.603845 266.896912,3.222910 C275.893921,6.154839 281.985565,14.752872 281.997101,24.060036 C282.016052,39.380318 282.016510,54.700630 282.064423,70.484100 z" opacity="1"/><path fill="#C1884B" stroke="none" d="M461.863525,382.614136 C458.960571,382.866455 455.810364,382.773560 452.354706,382.420898 C455.238251,382.197052 458.427246,382.232971 461.863525,382.614136 z" opacity="1"/><path fill="#D19149" stroke="none" d="M194.646515,152.833221 C196.596481,162.344742 198.231720,171.723709 199.910522,181.352570 C198.793854,181.617340 198.048004,181.917862 197.289062,181.955688 C185.137802,182.561249 178.998688,192.302277 183.761444,203.461090 C184.150833,204.373413 184.557144,205.278534 184.568619,206.577759 C174.788193,206.970428 165.132507,208.382996 156.053116,206.695312 C133.694382,202.539246 117.961617,189.217926 108.599396,168.373581 C103.783943,157.652267 102.578560,146.416824 102.965805,134.868179 C109.862495,127.872681 118.748169,123.637306 127.919174,122.500969 C137.856155,121.269707 148.468521,121.846535 158.270752,123.991325 C174.550537,127.553421 186.220261,138.208054 194.646515,152.833221 M176.007172,164.293365 C177.664398,153.967758 167.986618,143.795898 159.930023,141.685745 C149.459686,138.943405 140.794724,142.316910 141.088776,154.307465 C141.354248,165.132492 153.311127,176.075653 164.072800,175.989151 C170.729660,175.935623 175.338196,171.756226 176.007172,164.293365 z" opacity="1"/><path fill="#B17F4D" stroke="none" d="M102.656670,135.020599 C102.578560,146.416824 103.783943,157.652267 108.599396,168.373581 C117.961617,189.217926 133.694382,202.539246 156.053116,206.695312 C165.132507,208.382996 174.788193,206.970428 184.629059,206.944855 C186.755447,208.061356 188.434433,209.201523 190.113419,210.341690 C189.972275,210.894455 189.831146,211.447235 189.690002,212.000015 C186.010193,212.000015 182.330399,211.996338 178.650589,212.000717 C168.007172,212.013351 162.105164,217.901703 162.027023,228.643967 C161.979919,235.117401 162.004517,241.591324 161.958496,248.532516 C145.307098,249.000046 128.694061,249.000076 111.623795,249.000366 C112.348152,239.604431 108.991287,233.566925 101.197929,227.017609 C77.042557,206.718170 73.822212,170.449371 92.435448,145.285629 C95.215508,141.527206 99.018021,138.525055 102.656670,135.020599 z" opacity="1"/><path fill="#FFDF64" stroke="none" d="M231.610748,25.183975 C231.803162,40.082119 231.673782,55.264332 231.210907,70.704727 C231.014603,55.797951 231.151764,40.632996 231.610748,25.183975 z" opacity="1"/><path fill="#FFDF64" stroke="none" d="M324.617310,382.769592 C326.265717,392.753326 327.633545,402.459991 329.020050,412.581726 C288.614349,412.996765 248.189941,412.996765 207.046783,412.996765 C207.807724,407.269287 208.406281,402.112335 209.190125,396.983704 C211.760010,380.168762 214.636398,363.396881 216.943863,346.546692 C219.444046,328.289032 233.690445,313.083191 251.579819,312.145844 C271.979004,311.076965 292.448425,311.348022 313.333862,311.062286 C315.753693,324.287598 317.741760,337.485138 319.695679,350.687775 C321.264221,361.286224 322.791260,371.890747 324.617310,382.769592 z" opacity="1"/><path fill="#D19149" stroke="none" d="M192.103088,360.669220 C173.130585,361.028931 154.326614,360.654266 135.543655,361.122681 C119.360764,361.526276 105.926300,347.288849 105.690331,331.652832 C105.448914,315.655487 118.464165,300.951721 137.737320,300.993591 C158.528046,301.038757 179.318924,301.012390 200.584351,301.036896 C199.232132,313.971039 197.448090,326.891754 195.561127,339.797424 C194.559875,346.645355 193.379974,353.467163 192.103088,360.669220 z" opacity="1"/><path fill="#D19149" stroke="none" d="M171.004318,412.984192 C141.221069,412.984894 111.437813,413.005371 81.654610,412.974823 C72.140831,412.965057 65.852043,408.775513 63.577515,401.121704 C61.094879,392.767609 67.815033,383.129852 76.509949,383.027710 C111.742477,382.613800 146.976547,382.326202 182.210571,382.059601 C184.162308,382.044800 186.118637,382.638062 188.484299,382.941040 C187.586792,391.899689 186.394409,400.885986 184.832443,409.807556 C184.618942,411.027069 182.706161,412.485657 181.326111,412.837646 C179.296051,413.355469 177.037354,412.976990 174.239136,412.722046 C172.736267,412.637238 171.870285,412.810699 171.004318,412.984192 z" opacity="1"/><path fill="#FFDF64" stroke="none" d="M313.627014,181.938385 C319.214203,181.685898 324.044495,182.201675 327.778351,186.347336 C334.357513,193.652084 332.370819,204.487045 323.141113,210.700195 C288.095245,211.328049 253.209686,211.741394 218.322922,211.931030 C209.932648,211.976654 202.962677,204.613602 202.983673,196.703705 C203.007889,187.577896 211.064240,181.727280 218.838501,181.823990 C250.271332,182.214996 281.712067,181.972488 313.627014,181.938385 z" opacity="1"/><path fill="#FFDF64" stroke="none" d="M320.496918,262.010559 C329.269592,265.766876 332.342377,272.292786 331.085846,281.581909 C327.620209,290.838379 320.453644,292.662415 311.580994,292.098145 C280.534210,292.081451 249.926819,291.991180 219.319687,292.042725 C212.945816,292.053467 208.006729,289.827667 204.838898,284.234467 C201.719940,278.727600 202.504822,273.321167 205.918289,268.286133 C208.937546,263.832520 213.427612,262.000214 218.724319,262.001007 C252.493607,262.006012 286.262878,262.012604 320.496918,262.010559 z" opacity="1"/><path fill="#D19149" stroke="none" d="M127.356949,483.078674 C95.246460,483.070038 63.564240,483.021088 31.413691,482.902985 C23.003042,478.910797 19.585241,462.435669 25.797514,456.160095 C27.637321,454.301483 31.052864,453.138947 33.753391,453.126007 C72.536606,452.939789 111.321022,453.004944 150.578781,453.033142 C146.749878,458.474762 142.036743,463.626709 138.290466,469.405396 C135.829208,473.201904 134.763611,477.903198 133.004608,482.564636 C131.219193,482.966095 129.502197,483.002228 127.356949,483.078674 z" opacity="1"/><path fill="#D19149" stroke="none" d="M182.916412,281.635193 C155.168182,282.023651 127.384933,281.708679 99.616081,282.202911 C92.187195,282.335144 83.033531,275.384796 83.039551,266.995789 C83.045494,258.720428 91.991776,251.591370 99.628677,251.794556 C120.405853,252.347382 141.207336,251.986053 162.459061,251.973022 C166.425278,258.655792 171.522583,262.591492 179.520538,262.048859 C183.626923,261.770294 187.767776,262.000000 192.848175,262.000000 C185.531189,266.906616 180.017227,272.096527 182.916412,281.635193 z" opacity="1"/><path fill="#C48A4B" stroke="none" d="M340.317383,413.094055 C340.895599,412.802673 341.764069,412.646179 342.813721,412.735718 C342.994904,412.981781 343.002594,413.470856 343.008667,413.714966 C342.212372,413.715698 341.410004,413.472321 340.317383,413.094055 z" opacity="1"/><path fill="#C48A4B" stroke="none" d="M171.000031,413.225098 C171.870285,412.810699 172.736267,412.637238 173.783142,412.705994 C173.183121,413.275940 172.402191,413.603699 171.301163,413.939575 C170.981064,413.947662 170.995728,413.466003 171.000031,413.225098 z" opacity="1"/><path fill="#E3A349" stroke="none" d="M384.332886,140.998169 C398.471283,141.005539 408.459015,151.085800 408.004913,164.449066 C407.769775,171.368744 401.560791,176.695145 394.610474,175.939499 C384.283722,174.816803 374.612823,165.589081 373.064758,155.381058 C371.911743,147.778214 375.852509,142.547226 384.332886,140.998169 z" opacity="1"/><path fill="#E3A349" stroke="none" d="M176.005829,164.730927 C175.338196,171.756226 170.729660,175.935623 164.072800,175.989151 C153.311127,176.075653 141.354248,165.132492 141.088776,154.307465 C140.794724,142.316910 149.459686,138.943405 159.930023,141.685745 C167.986618,143.795898 177.664398,153.967758 176.005829,164.730927 z" opacity="1"/></svg>